PathFileType	4	(X/Y/Z)	 s01c0001.trc
DataRate	CameraRate	NumFrames	NumMarkers	Units	OrigDataRate	OrigDataStartFrame	OrigNumFrames
200	200	4	49	mm	200	1751	2000
Frame#	Time	racr			lacr			c7			jug			rlel			rdr			llel			ldr			s2			lic			ric			lasi			rasi			rpsi			lpsi			rgt			lgt			rth1			rth2			rth3			rth4			rlfc			rmfc			rsh1			rsh2			rsh3			rsh4			rlmal			rmmal			rcal			rtoe			rmt5			rmt1			lth1			lth2			lth4			lth3			llfc			lmfc			lsh1			lsh2			lsh3			lsh4			llmal			lmmal			lcal			ltoe			lmt1			lmt5			
		X1	Y1	Z1	X2	Y2	Z2	X3	Y3	Z3	X4	Y4	Z4	X5	Y5	Z5	X6	Y6	Z6	X7	Y7	Z7	X8	Y8	Z8	X9	Y9	Z9	X10	Y10	Z10	X11	Y11	Z11	X12	Y12	Z12	X13	Y13	Z13	X14	Y14	Z14	X15	Y15	Z15	X16	Y16	Z16	X17	Y17	Z17	X18	Y18	Z18	X19	Y19	Z19	X20	Y20	Z20	X21	Y21	Z21	X22	Y22	Z22	X23	Y23	Z23	X24	Y24	Z24	X25	Y25	Z25	X26	Y26	Z26	X27	Y27	Z27	X28	Y28	Z28	X29	Y29	Z29	X30	Y30	Z30	X31	Y31	Z31	X32	Y32	Z32	X33	Y33	Z33	X34	Y34	Z34	X35	Y35	Z35	X36	Y36	Z36	X37	Y37	Z37	X38	Y38	Z38	X39	Y39	Z39	X40	Y40	Z40	X41	Y41	Z41	X42	Y42	Z42	X43	Y43	Z43	X44	Y44	Z44	X45	Y45	Z45	X46	Y46	Z46	X47	Y47	Z47	X48	Y48	Z48	X49	Y49	Z49	
1751	8.7550	506.513419	1503.041382	-350.592798	313.733199	1484.361884	-689.526030	386.489450	1531.711275	-498.201959	516.503044	1460.091425	-568.609751	568.428914	1256.409539	-185.238387	728.256638	1060.353912	-74.889768	214.120804	1212.979993	-784.353420	217.688509	1006.370576	-954.857862	340.572657	1020.710734	-458.948494	369.715483	1090.549924	-676.837259	545.980105	1061.765489	-393.609614	420.667352	1025.812545	-679.156370	573.174603	1014.130850	-445.304603	383.115246	1051.338486	-421.752901	327.502170	1055.019524	-511.600905	516.777956	928.093093	-358.956743	336.637759	922.814313	-681.769296	537.753085	808.655128	-348.995316	542.985974	726.625225	-358.952437	536.405434	637.056894	-374.170338	580.693095	730.431583	-398.716239	505.573528	517.253566	-387.392292	445.123753	493.155230	-475.975748	491.151394	401.847421	-338.402130	485.811114	317.602191	-343.504931	470.015558	229.286337	-352.516843	510.673234	317.256794	-399.964228	447.283329	99.096871	-371.471100	447.645535	122.434939	-459.243181	393.697010	67.877739	-415.832541	651.968688	91.520410	-492.353559	581.516034	50.457830	-391.190708	561.328899	62.177104	-504.600409	321.149481	803.315938	-687.872964	340.744001	717.237531	-689.033807	390.825108	727.227016	-708.539165	357.150051	633.912778	-676.625834	364.984545	520.483539	-653.564254	392.760431	489.686564	-546.417414	306.275733	410.577650	-665.992966	304.337824	323.888347	-657.290399	305.157636	238.944741	-639.526307	367.061626	323.075878	-654.964648	317.427569	105.020245	-619.861087	382.702514	116.305145	-558.632582	304.853333	64.594784	-560.206803	543.522533	96.728521	-692.396299	498.550945	65.636066	-617.261351	426.116375	57.324616	-707.105429	
1752	8.7600	506.458820	1503.033285	-350.577466	313.728035	1484.363114	-689.535619	386.458359	1531.712655	-498.192987	516.474862	1460.088371	-568.603881	568.412734	1256.391414	-185.256565	728.266178	1060.332880	-74.956459	214.091512	1212.944775	-784.327768	217.669151	1006.366659	-954.852506	340.579762	1020.711060	-458.936919	369.720537	1090.542741	-676.832275	545.975658	1061.768088	-393.596666	420.661501	1025.804444	-679.150354	573.194166	1014.143729	-445.303849	383.119223	1051.351855	-421.748407	327.497845	1055.010842	-511.594912	516.776686	928.088818	-358.950556	336.628599	922.821407	-681.771921	537.763256	808.635449	-349.002352	542.986495	726.629160	-358.951381	536.413959	637.041937	-374.164571	580.678834	730.435658	-398.698041	505.585680	517.274236	-387.411164	445.123680	493.156379	-475.974863	491.157065	401.840065	-338.408457	485.777040	317.579547	-343.485864	470.000699	229.276256	-352.501735	510.678826	317.248195	-399.954731	447.282977	99.096172	-371.471273	447.643800	122.437577	-459.241503	393.688810	67.871275	-415.831277	651.969734	91.516542	-492.352939	581.517272	50.459200	-391.202649	561.328913	62.177094	-504.600422	321.141531	803.316719	-687.856065	340.739889	717.250473	-689.029516	390.848713	727.205456	-708.497476	357.154372	633.897591	-676.619357	364.952323	520.490320	-653.561227	392.751102	489.700900	-546.387236	306.260920	410.576136	-665.970890	304.328405	323.892071	-657.274154	305.155775	238.948056	-639.521255	367.054009	323.080231	-654.960461	317.429897	105.016657	-619.862860	382.699591	116.319209	-558.629253	304.875811	64.572445	-560.196561	543.514571	96.736648	-692.395382	498.539547	65.620843	-617.256614	426.117640	57.327454	-707.098060	
1753	8.7650	506.402827	1503.019261	-350.567025	313.689798	1484.341667	-689.531422	386.403066	1531.721765	-498.228178	516.444634	1460.075724	-568.570919	568.387402	1256.375088	-185.284691	728.270202	1060.305464	-75.007911	214.061242	1212.958477	-784.348076	217.652712	1006.364543	-954.845850	340.600092	1020.714540	-458.922905	369.901310	1090.652247	-676.825763	546.009767	1061.759072	-393.580745	420.646786	1025.808052	-679.141320	573.197742	1014.142469	-445.302182	383.122512	1051.356520	-421.735011	327.519534	1055.015325	-511.575309	516.799057	928.096000	-358.948003	336.627635	922.824166	-681.749614	537.774990	808.635711	-348.997737	542.998182	726.618332	-358.944584	536.423053	637.059783	-374.161336	580.699076	730.424421	-398.701467	505.587405	517.274684	-387.403337	445.125072	493.156054	-475.977856	491.157904	401.853435	-338.406066	485.784058	317.583680	-343.499606	470.005827	229.274527	-352.511943	510.685963	317.257438	-399.956626	447.269512	99.093425	-371.476275	447.644396	122.439130	-459.243492	393.693545	67.869565	-415.834608	651.965328	91.518774	-492.357170	581.500619	50.446615	-391.191664	561.329877	62.176245	-504.597680	321.132739	803.316069	-687.841915	340.732366	717.243802	-688.997059	390.810382	727.235724	-708.515636	357.136561	633.905553	-676.609676	364.967657	520.491526	-653.533712	392.772549	489.693796	-546.398179	306.270938	410.582951	-665.965282	304.332832	323.901538	-657.258095	305.153200	238.951958	-639.514804	367.051220	323.082744	-654.956085	317.446071	105.016731	-619.852666	382.702434	116.326850	-558.632537	304.856460	64.582638	-560.202662	543.517644	96.721752	-692.392085	498.536882	65.641251	-617.262775	426.094061	57.326229	-707.108578	
1754	8.7700	506.357913	1503.006562	-350.557020	313.651497	1484.336670	-689.492657	386.373850	1531.727623	-498.209272	516.423707	1460.069508	-568.580014	568.356425	1256.336817	-185.286659	728.283717	1060.282596	-75.079405	214.046071	1212.944097	-784.339969	217.631748	1006.357875	-954.853140	340.597148	1020.718052	-458.908166	369.885627	1090.647331	-676.819164	546.012895	1061.763501	-393.563462	420.661631	1025.803422	-679.131512	573.208142	1014.143619	-445.296781	383.130973	1051.354516	-421.709927	327.513248	1054.991178	-511.565413	516.803329	928.097135	-358.940170	336.631246	922.820395	-681.748023	537.798854	808.637690	-349.008540	543.006173	726.623394	-358.954456	536.429117	637.050092	-374.171128	580.701638	730.430882	-398.697300	505.608286	517.271690	-387.383451	445.100974	493.172393	-475.953094	491.162664	401.846859	-338.402933	485.825133	317.578844	-343.501140	470.018445	229.265402	-352.514622	510.685998	317.248068	-399.961845	447.270573	99.108102	-371.472427	447.645322	122.439217	-459.242599	393.688829	67.871266	-415.831278	651.962306	91.523507	-492.363115	581.507470	50.471120	-391.196650	561.329922	62.176129	-504.597963	321.125420	803.315507	-687.829679	340.718249	717.236449	-688.989559	390.807243	727.236304	-708.504026	357.131569	633.912878	-676.605112	364.967991	520.491148	-653.533602	392.774167	489.697223	-546.386521	306.263760	410.586536	-665.959858	304.329145	323.903205	-657.268956	305.151044	238.953473	-639.510242	367.048451	323.083177	-654.951736	317.447594	105.016958	-619.853039	382.700960	116.312995	-558.626489	304.847672	64.592644	-560.199299	543.517932	96.720690	-692.393531	498.545530	65.632768	-617.260382	426.116012	57.324245	-707.103989	
